<?xml version="1.0" encoding="UTF-8"?>
<!DOCTYPE svg PUBLIC "-//W3C//DTD SVG 1.1//EN" "http://www.w3.org/Graphics/SVG/1.1/DTD/svg11.dtd">
<!-- Creator: CorelDRAW X7 -->
<svg xmlns="http://www.w3.org/2000/svg" xml:space="preserve" width="24409px" height="5582px" version="1.1" style="shape-rendering:geometricPrecision; text-rendering:geometricPrecision; image-rendering:optimizeQuality; fill-rule:evenodd; clip-rule:evenodd"
viewBox="0 0 8951515 2047184"
 xmlns:xlink="http://www.w3.org/1999/xlink">
 <defs>
  <style type="text/css">
   <![CDATA[
    .fil1 {fill:white}
    .fil0 {fill:white;fill-rule:nonzero}
   ]]>
  </style>
 </defs>
 <g id="Layer_x0020_1">
  <metadata id="CorelCorpID_0Corel-Layer"/>
  <path class="fil0" d="M1883237 1272749c-85569,89164 -163228,154599 -232978,196305 -70109,41706 -141656,62559 -215360,62559 -82693,0 -152443,-36313 -208889,-109298 -56447,-72986 -84850,-179767 -84850,-319985 0,-58245 7909,-134465 23369,-228663 -104984,10067 -169699,15819 -193429,17257 -45301,230102 -123320,394408 -234775,492921 -111456,98512 -237292,147768 -377870,147768 -103905,0 -189833,-24089 -257426,-71907 -67233,-48177 -101029,-94557 -101029,-139499 0,-33077 25167,-70828 75143,-113253 50334,-42425 84850,-63637 103905,-63637 27325,0 40987,29482 40987,88445 0,145251 48896,217877 146689,217877 71907,0 131590,-39908 179048,-120084 47458,-79816 85569,-211765 114691,-396206 -84850,11865 -169340,52133 -253111,121522 -5393,-7909 -10427,-38110 -14741,-90602 74423,-81255 172935,-138061 295177,-170419 23729,-113972 53930,-206732 91321,-278638 37032,-71547 131230,-182284 282594,-331850 -72985,28763 -132668,43144 -179048,43144 -30201,0 -67952,-7909 -113253,-23729 -45301,-15819 -81614,-23729 -108939,-23729 -59682,0 -108219,21572 -146330,64716 -37751,43144 -56806,87366 -56806,132308 0,44942 23729,85929 71187,122961 21572,13302 32358,25886 32358,38110 0,20853 -14021,47099 -42065,78378 -28043,31280 -53930,46740 -78738,46740 -26965,0 -52492,-19415 -75502,-58604 -23010,-38830 -34515,-81974 -34515,-129072 0,-103906 51054,-208530 152802,-313154 101748,-104625 202777,-157117 303086,-157117 21572,0 63638,8989 126197,26965 62559,17977 104983,26965 127274,26965 44942,0 88805,-19414 131590,-58244 53571,28044 80176,45661 80176,52492 0,10067 -20853,35953 -62559,78738 -42065,42425 -76221,102827 -103186,181564 -26965,78379 -55728,225068 -86288,440069 80535,-3595 150644,-10066 211046,-19414 31280,-108939 65435,-200620 102467,-275043 37392,-74424 80176,-149567 127994,-225068 48178,-75503 85209,-121523 110736,-138421 25527,-16898 79817,-36313 163229,-57885 83052,-21932 125117,-32718 125836,-32718 8270,0 12584,2158 12584,6472 0,10426 -15820,37751 -47459,81614 -31998,43863 -77658,122601 -137341,236933 -59323,113972 -108579,235494 -147409,365286 75142,-12943 151723,-46739 230461,-101389 8989,4315 14382,10427 16539,18337 2157,8269 3236,28403 3236,60761 -59683,72985 -155679,125117 -287987,156037 -30201,136983 -45301,233697 -45301,290503 0,68312 15100,122602 44942,162869 30200,39908 70468,60042 121162,60042 40628,0 81255,-12943 122242,-39189 40987,-25886 93478,-76221 157116,-150644l0 120803z"/>
  <path id="1" class="fil0" d="M3006780 1274906c-92760,87726 -170060,152442 -232619,194148 -62559,41706 -118646,62559 -168621,62559 -55368,0 -97793,-22291 -127634,-66514 -29842,-44222 -44942,-104265 -44942,-180486 -76940,84491 -146330,146690 -207091,186958 -61121,39908 -120804,60042 -179048,60042 -53211,0 -96355,-21931 -128354,-66154 -32358,-44223 -48537,-103905 -48537,-179767 0,-145611 49256,-351264 147409,-616959l283312 -56807c-116848,337602 -176531,554041 -178328,648958 0,67233 25527,100670 76221,100670 37032,0 82333,-29482 136982,-88446 54290,-59323 88446,-111095 101748,-154959l138061 -449416 286908 -56088c-66154,210687 -111815,359174 -136623,444384 -24448,85569 -37032,145611 -37032,180126 0,65794 22651,98512 67593,98512 36312,0 90602,-33077 162149,-99231l88446 -82333 0 120803z"/>
  <path id="2" class="fil0" d="M4040079 1274906c-162150,171138 -301289,256707 -417059,256707 -46740,0 -84850,-16538 -113613,-49616 -28762,-33077 -43144,-77659 -43144,-133027 0,-75502 30920,-190912 92760,-346590 33077,-83772 49615,-136983 49615,-159633 0,-22651 -8988,-33797 -26605,-33797 -9708,0 -22651,5034 -38829,14741 -14741,10067 -31999,23730 -51773,41347 -17618,16179 -37032,35953 -58964,58963 -18696,19775 -39189,42425 -61121,67593l-58963 68670c-25886,31999 -42065,65436 -48537,100670 -10427,59683 -17258,114691 -20853,164666 -2157,37392 -3236,87726 -3236,151004l-232258 55009c-7551,-94917 -11506,-165386 -11506,-211765 0,-112894 13303,-220035 39549,-321064 26246,-101029 68311,-214641 126556,-340837l256707 -49616c-53930,143813 -89524,257785 -106422,341197 115051,-128353 206732,-217517 274324,-266774 67952,-49615 127994,-74423 180845,-74423 35594,0 65435,13662 89524,40627 23729,26965 35594,60761 35594,101389 0,67232 -30201,178688 -90962,334366 -41706,106781 -62559,176171 -62559,208169 0,42785 17258,63998 51773,63998 51413,0 134465,-67593 249157,-202777l0 120803z"/>
  <path id="3" class="fil0" d="M5073378 1272749c-89164,93478 -195586,162509 -319625,206732 -58245,181924 -132309,321782 -221832,420294 -89524,98153 -184441,147409 -284751,147409 -55009,0 -99231,-17257 -132668,-51773 -33796,-34155 -50694,-79457 -50694,-135544 0,-75142 33436,-142735 100669,-202417 66874,-59683 180846,-117208 341557,-172576l45302 -207811c-67233,75862 -125478,131230 -174734,166824 -49256,35594 -98512,53211 -148487,53211 -58245,0 -105703,-27325 -143095,-82333 -37031,-55009 -55727,-126197 -55727,-214282 0,-143454 54649,-278279 163947,-403757 109299,-125477 225428,-188395 348748,-188395 67951,0 128353,28763 181205,86288 31639,-11505 72985,-28763 123319,-51773l75143 -34515 24089 0c-27684,83412 -48897,164666 -63638,243764l-99590 530671c94557,-35953 191271,-112893 290862,-230820l0 120803zm-677721 34515c49616,0 93839,-29482 132669,-88805 38470,-58963 68670,-134106 89883,-225068 21572,-90602 31998,-153880 31998,-189115 0,-33077 -7910,-60401 -24448,-81613 -16539,-21572 -37032,-32358 -61840,-32358 -74423,0 -139139,50334 -194867,151003 -55368,100670 -83052,203137 -83052,307402 0,48537 10067,87367 29841,115770 20134,28402 46739,42784 79816,42784zm88446 270369c-226866,81255 -340479,175453 -340479,282234 0,31639 9348,57525 28404,77300 19055,20134 43144,30201 72625,30201 50695,0 94558,-31999 131949,-95996 37032,-63997 72986,-161790 107501,-293739z"/>
  <path id="4" class="fil0" d="M5860757 1274906c-176531,171138 -312435,256707 -408071,256707 -42784,0 -79097,-17976 -108579,-54289 -29482,-35954 -44222,-80896 -44222,-134107 0,-99231 52851,-231899 158913,-398003 -51773,26605 -108579,45301 -170059,55728 -45661,84849 -117208,176171 -215001,273964l-24089 0 0 -94917c55008,-57525 104265,-119365 148487,-185519 -60042,-26605 -90243,-65795 -90243,-118287 0,-53570 18337,-111096 55009,-171857 37032,-61120 87726,-91681 152083,-91681 54649,0 81973,28044 81973,83772 0,43863 -15819,106421 -47458,188036 116489,-12584 218597,-101749 305603,-267493l95637 -4315 -97434 269650c-40628,113613 -66873,190913 -78738,231899 -11864,41347 -17976,77660 -17976,109299 0,29482 6831,52851 20493,70468 13662,17617 31998,26246 55368,26246 25167,0 49256,-8629 72626,-25527 23010,-16898 75142,-63637 155678,-140577l0 120803z"/>
  <path id="5" class="fil0" d="M6648494 1274906c-89163,87726 -168980,152442 -240168,194148 -70828,41706 -149206,62559 -234775,62559 -95276,0 -172217,-30560 -230821,-91681 -58604,-61480 -88085,-142016 -88085,-241607 0,-149206 51772,-284031 154959,-404835 103186,-120443 217517,-180845 343354,-180845 65076,0 117568,16898 156757,50695 39189,33436 58963,77659 58963,132667 0,145252 -153880,263179 -462000,353781 28043,138061 101388,207092 219675,207092 46020,0 90242,-12584 132308,-37392 41706,-24808 105343,-79816 189833,-165385l0 120803zm-550085 -196305c178328,-50335 267492,-143454 267492,-278998 0,-67233 -24448,-100670 -72985,-100670 -46020,0 -89883,35235 -131949,105343 -41706,70469 -62558,161791 -62558,274325z"/>
  <path id="6" class="fil0" d="M7436232 1274906c-89163,87726 -168980,152442 -240168,194148 -70828,41706 -149206,62559 -234775,62559 -95276,0 -172217,-30560 -230821,-91681 -58604,-61480 -88086,-142016 -88086,-241607 0,-149206 51773,-284031 154960,-404835 103185,-120443 217517,-180845 343354,-180845 65076,0 117568,16898 156757,50695 39189,33436 58963,77659 58963,132667 0,145252 -153880,263179 -462001,353781 28044,138061 101389,207092 219676,207092 46020,0 90242,-12584 132308,-37392 41706,-24808 105343,-79816 189833,-165385l0 120803zm-550086 -196305c178329,-50335 267493,-143454 267493,-278998 0,-67233 -24448,-100670 -72985,-100670 -46020,0 -89883,35235 -131949,105343 -41706,70469 -62559,161791 -62559,274325z"/>
  <g id="_2276889264064">
   <rect class="fil1" transform="matrix(-0.448982 -0.647675 0.503104 -0.348762 7.51001E+006 1.20541E+006)" width="97793" height="171137"/>
   <g>
    <path class="fil1" d="M7656908 1119987c-15224,-20470 -30449,-40941 -45673,-61413 27827,-20695 55655,-41391 83482,-62087 15225,20471 30450,40942 45674,61412 -27827,20697 -55655,41393 -83483,62088z"/>
    <path class="fil1" d="M7789012 1012463c-15813,-19829 -31627,-39658 -47440,-59488 26955,-21496 53910,-42992 80865,-64489 15814,19829 31627,39659 47441,59488 -26955,21496 -53911,42993 -80866,64489z"/>
   </g>
   <path class="fil1" d="M7911889 894680c-16402,-19187 -32804,-38374 -49207,-57562 26084,-22296 52166,-44593 78248,-66890 16403,19187 32805,38375 49207,57561 -26082,22297 -52165,44594 -78248,66891z"/>
   <path class="fil1" d="M8119643 636258c-25007,-2048 -50015,-4096 -75024,-6144 2784,-33995 5569,-67991 8353,-101986 25008,2048 50016,4096 75024,6144 -2783,33996 -5568,67991 -8353,101986z"/>
   <path class="fil1" d="M7921691 499366c921,-25045 1842,-50089 2763,-75134 34045,1252 68090,2504 102135,3756 -921,25045 -1842,50090 -2763,75134 -34045,-1252 -68091,-2504 -102135,-3756z"/>
   <path class="fil1" d="M7807572 542122c-18757,-16620 -37516,-33240 -56273,-49860 22593,-25499 45186,-50998 67779,-76497 18758,16621 37516,33241 56273,49861 -22593,25499 -45185,50998 -67779,76496z"/>
   <path class="fil1" d="M7744723 638205c13360,-21239 26721,-42478 40082,-63718 28871,18163 57743,36325 86615,54486 -13361,21240 -26721,42479 -40082,63718 -28871,-18162 -57743,-36324 -86615,-54486z"/>
   <path class="fil1" d="M7893977 723633c8225,-23769 16451,-47539 24676,-71308 32311,11182 64623,22364 96934,33545 -8225,23769 -16451,47539 -24676,71308 -32312,-11181 -64623,-22363 -96934,-33545z"/>
   <path class="fil1" d="M8076013 773000c-5105,-24721 -10211,-49442 -15317,-74163 33605,-6941 67209,-13881 100814,-20822 5106,24721 10212,49442 15318,74162 -33605,6941 -67210,13882 -100815,20823z"/>
   <path class="fil1" d="M8255287 750509c-11543,-22584 -23086,-45168 -34628,-67752 30699,-15691 61399,-31381 92098,-47072 11543,22583 23086,45167 34628,67750 -30699,15691 -61398,31382 -92098,47074z"/>
   <path class="fil1" d="M8416936 690694c-13512,-21640 -27023,-43279 -40535,-64919 29417,-18367 58834,-36734 88250,-55101 13512,21639 27023,43280 40535,64919 -29416,18368 -58833,36734 -88250,55101z"/>
   <rect class="fil1" transform="matrix(-0.448982 -0.647675 0.503104 -0.348762 7.65644E+006 1.11562E+006)" width="97793" height="171137"/>
   <rect class="fil1" transform="matrix(-0.606222 -0.50355 0.391149 -0.470904 8.57582E+006 602012)" width="97793" height="171137"/>
  </g>
  <g id="_2276889267808">
   <path class="fil1" d="M8947992 290409l-9397 -1046 -603 5798c-3022,18199 -30043,27647 -49386,20741 -9335,-3333 -42394,-23090 -49633,-28402l925 -11346c9666,-2491 11968,-3745 24030,-3394 685,-459 1534,-832 2203,-1121l8260 -3090c-9,-72 -366,-435 -408,-532l-1320 -2004c-1602,-3312 -1354,183 -1973,-5730l5175 -2064c364,-179 1299,-534 1017,-668 -30,-15 11087,-6876 18348,-25208 6292,-15889 -2644,-20104 41,-35697 -1400,-921 -3373,-1768 -4494,-2643 -489,-380 -6051,-1158 -2527,-2511 418,-161 -871,-1010 -1296,-1523 -2366,-9583 -12190,-28654 -25048,-29367 -5722,589 -9143,773 -12999,-2546 -5295,-4559 -3754,-2785 -3292,-11378 -1276,8156 -840,6635 -8023,7854 -28396,3266 -48605,12385 -61663,39337l-7823 -6575c-1103,-387 -9711,-5063 -3741,-253 -6840,979 -951,-2392 -6805,3117 -78,7398 2320,5191 5457,15149 1473,4678 1802,11644 1331,18345 -2135,1130 -1142,941 -4612,1888 -7957,2170 -7812,908 -11244,-454 -10070,-3994 -31656,-13697 -38217,-21866 -4489,-5589 -13523,-17547 -16439,-22872 -4905,-8958 -6105,-19987 -3682,-32724l12778 -6916c3829,-3124 -4676,-7738 17998,-1203 6259,1804 4632,202 10109,2576 -5326,1501 -557,1265 -1487,-4155 -4539,-16390 -43022,-11007 -49223,2963 -11691,26337 11929,56233 11923,60557 -17102,-1797 -19051,-6156 -36067,-4189 -11788,1363 -25889,1494 -35751,5215 -23886,9012 -69917,42332 -43890,67261 40464,38756 72012,10453 100041,8431 -21820,27113 -37117,52350 -37744,93159 -277,18065 -2861,33294 6213,49913 7826,14331 15066,29222 30308,33404 6919,-916 11120,-4057 13755,-3950 -3228,295 -1187,861 -5377,-184l-11418 -5696c-6606,-4625 -7573,-10486 -14710,-14899l740 -8969c-732,-8465 -5916,-15261 -6677,-26253 -736,-10626 655,-24696 5297,-32080 12295,675 2299,52 9932,6061 5007,3941 11196,4740 12071,5702 6767,12561 3903,7601 18063,13419 16333,6713 250,8108 14937,16339 2810,1575 4177,1692 5760,2516 5732,2982 1934,1053 5192,3402 6401,4615 -2610,2441 10122,4646 13676,2368 5931,-400 14211,13448l24652 2088c11571,2763 2867,-691 9405,7307 3019,-6659 3477,-5431 11112,-6269 6020,-1461 12786,-16794 20801,-21434 4666,8120 4479,15431 5973,18709 5517,1535 2387,-1207 6620,2774 4945,-461 1700,2758 3712,-3660 4852,-17772 -11254,-28456 1929,-55282 8339,-16967 16104,-30953 17576,-52603l5274 3529c7817,-1680 5972,-3984 8302,-4640 14805,-4166 9280,1190 11226,3513 10349,11001 35251,10103 49320,3806 7182,-3214 14706,-6207 19900,-12677 5684,-7078 12874,-16990 4930,-22894zm-134952 70063c-14274,-2805 -14554,-6331 -18281,-9400 -6577,-5415 -11289,-4682 -17633,-10492 -10857,-9943 -6264,-3845 -16127,-11329 -4961,-3763 -780,-1973 -7712,-5091 -25574,-11506 -2318,-7228 -19396,-16587 -440,-241 -997,-461 -1457,-683 -12296,-5933 -8443,-307 -14906,-6591 -6142,-5973 2867,-9165 -25913,-18844 -6031,5651 -17818,16782 -18530,27009 -20,283 354,6661 410,7002l1957 6245c6942,12643 19600,15695 26158,20669 7013,5320 4206,747 4750,10759 5912,-5382 1653,-4241 8907,-1526 423,1333 1281,1795 901,5469 -305,2943 -836,3864 -1726,6804 5730,-1160 8160,-2818 14618,-368l7015 5039c223,157 701,517 925,654l5536 2289c5016,2540 1248,676 4853,3078l9678 10153c8955,-2215 2967,-1463 11122,-540 5274,597 5198,-14 11841,958l5325 9964 24044 1447c4914,-18333 2666,-17448 3641,-36088zm-88653 -96710c4684,4027 15032,5736 19490,9040 6483,4806 1842,3277 5519,6155 4844,3788 796,-1537 9055,3352 2548,3382 -4930,10875 13111,15186 10789,2579 11461,2228 13703,9616l1147 4686c89,337 164,1081 454,1525 31468,6227 13073,4558 21268,18233 2612,-168 5959,3558 10166,-13616 1399,-5710 5283,-19031 4689,-23021 -2024,-13574 -23186,-25163 -26293,-27765 -13484,-11292 -26787,-26305 -56358,-14540 -9772,3889 -13388,2802 -15951,11149zm13421 -25907c-7678,-7794 -25644,-15508 -37634,-20966 -74437,-33885 -165931,42487 -87543,59922 15929,3542 34364,-1372 47538,-5754l77639 -33202z"/>
   <path class="fil1" d="M8873842 322174c-1946,-2323 3579,-7679 -11226,-3513 -2330,656 -485,2960 -8302,4640 2058,5843 2706,6857 5923,11803 7544,11597 12149,16789 18296,30617 7405,16660 16457,28029 13853,52073 -1429,13197 -25872,63959 -49805,33048 -4579,-5914 -5303,-11488 -7823,-16191 -2698,-5038 1659,2026 -1675,-2849 -2741,-4007 133,-906 -3548,-4145 -2012,6418 1233,3199 -3712,3660 -4233,-3981 -1103,-1239 -6620,-2774 5384,43545 51653,75274 79405,10792 10353,-24057 7035,-45439 -2763,-64877l-28911 -51122c4203,-3626 -1259,-1175 6908,-1162z"/>
   <path class="fil1" d="M8771912 430230c-3527,8265 -15670,15095 -24143,18708 -9267,3952 -22894,5406 -34796,3615 -18659,-2806 -31827,-7321 -44497,-20105 -5097,-5143 -3714,-6550 -10124,-11506l-740 8969c7137,4413 8104,10274 14710,14899l11418 5696c4190,1045 2149,479 5377,184 -2635,-107 -6836,3034 -13755,3950 14671,15588 79253,22463 117067,-23372 -7635,838 -8093,-390 -11112,6269 -6538,-7998 2166,-4544 -9405,-7307z"/>
   <path class="fil1" d="M8875865 258219l-5175 2064c619,5913 371,2418 1973,5730l1320 2004c42,97 399,460 408,532l-8260 3090c-669,289 -1518,662 -2203,1121 37613,6 48597,4303 74064,22401l603 -5798 9397 1046 -12876 -11495c-6410,-5074 -8827,-5740 -16782,-9269 -31084,-13789 -35703,-1109 -42469,-11426z"/>
   <path class="fil1" d="M8729552 137926c930,5420 -3839,5656 1487,4155 -5477,-2374 -3850,-772 -10109,-2576 -22674,-6535 -14169,-1921 -17998,1203 10658,-221 15199,1465 21695,6686 4739,3808 9323,7905 12772,12331 8262,10603 13726,23212 16413,26651 2741,3507 68,760 3748,3782 5854,-5509 -35,-2138 6805,-3117 -5970,-4810 2638,-134 3741,253 -1335,-7376 -10388,-22272 -14479,-27609 -6081,-7935 -10722,-16991 -24075,-21759z"/>
   <path class="fil1" d="M8837592 154532c7183,-1219 6747,302 8023,-7854 -462,8593 -2003,6819 3292,11378 3856,3319 7277,3135 12999,2546 -4105,-4078 -4568,-3736 -12303,-5989 2007,-14816 9203,-31295 8135,-45450 -11653,-10617 -23973,-6660 -23671,10905l11135 5931c-876,14805 -4391,17615 -7610,28533z"/>
   <path class="fil1" d="M8914569 171500l-1122 5693 3740 1529c11791,278 14826,3928 24457,-5112 -339,-9861 -14527,-28371 -27075,-2110z"/>
   <path class="fil1" d="M8914569 171500c-5799,2493 -7520,4515 -12682,8665 -8200,6594 -3439,7644 -14933,9804 425,513 1714,1362 1296,1523 -3524,1353 2038,2131 2527,2511 1121,875 3094,1722 4494,2643l18215 -14094c2315,-2061 1596,-1496 3701,-3830l-3740 -1529 1122 -5693z"/>
  </g>
 </g>
</svg>
